<?xml version="1.0" encoding="UTF-8" standalone="no"?>
<!DOCTYPE svg PUBLIC "-//W3C//DTD SVG 1.1//EN" "http://www.w3.org/Graphics/SVG/1.1/DTD/svg11.dtd">
<svg width="100%" height="100%" viewBox="0 0 320 240" version="1.1" xmlns="http://www.w3.org/2000/svg" xmlns:xlink="http://www.w3.org/1999/xlink" xml:space="preserve" xmlns:serif="http://www.serif.com/" style="fill-rule:evenodd;clip-rule:evenodd;stroke-linejoin:round;stroke-miterlimit:2;">
    <g transform="matrix(1.333333,0,0,1,0,0)">
        <rect x="0" y="0" width="240" height="240" style="fill:rgb(26,26,26);"/>
    </g>
    <g transform="matrix(1,0,0,1,-10.36521,5.568489)">
        <g transform="matrix(84,0,0,84,14.719713,207.450271)">
            <path d="M0.048,-0C0.054,-0.057 0.059,-0.109 0.062,-0.155C0.066,-0.201 0.069,-0.254 0.072,-0.314C0.074,-0.375 0.076,-0.439 0.078,-0.506C0.079,-0.573 0.08,-0.627 0.08,-0.667C0.12,-0.666 0.153,-0.665 0.178,-0.665C0.204,-0.665 0.236,-0.666 0.273,-0.667C0.311,-0.669 0.347,-0.669 0.383,-0.669C0.424,-0.669 0.462,-0.668 0.494,-0.665C0.519,-0.662 0.541,-0.658 0.561,-0.65C0.581,-0.643 0.598,-0.635 0.611,-0.624C0.625,-0.614 0.636,-0.603 0.646,-0.59C0.655,-0.577 0.662,-0.562 0.667,-0.545C0.672,-0.528 0.674,-0.51 0.674,-0.49C0.674,-0.468 0.672,-0.448 0.666,-0.429C0.66,-0.41 0.652,-0.392 0.64,-0.375C0.628,-0.358 0.613,-0.344 0.595,-0.332C0.577,-0.32 0.552,-0.307 0.519,-0.294L0.544,-0.232C0.552,-0.215 0.559,-0.198 0.567,-0.18L0.633,-0.037C0.636,-0.03 0.641,-0.018 0.648,-0C0.595,-0.001 0.559,-0.001 0.54,-0.001C0.517,-0.001 0.478,-0.001 0.425,-0C0.42,-0.017 0.41,-0.048 0.396,-0.094C0.391,-0.113 0.386,-0.128 0.382,-0.139C0.375,-0.162 0.363,-0.194 0.348,-0.236L0.297,-0.374C0.315,-0.371 0.332,-0.369 0.349,-0.369C0.373,-0.369 0.394,-0.373 0.414,-0.38C0.433,-0.387 0.448,-0.398 0.458,-0.413C0.468,-0.428 0.473,-0.444 0.473,-0.46C0.473,-0.474 0.469,-0.487 0.461,-0.497C0.454,-0.508 0.442,-0.516 0.426,-0.521C0.41,-0.526 0.385,-0.529 0.352,-0.529C0.34,-0.529 0.328,-0.529 0.316,-0.528C0.304,-0.528 0.29,-0.527 0.273,-0.527C0.269,-0.46 0.265,-0.379 0.262,-0.283C0.259,-0.187 0.257,-0.092 0.256,-0C0.201,-0.001 0.166,-0.001 0.15,-0.001C0.131,-0.001 0.097,-0.001 0.048,-0Z" style="fill:white;fill-rule:nonzero;"/>
        </g>
        <g transform="matrix(84,0,0,84,73.577135,207.450271)">
            <path d="M0.526,-0.147C0.522,-0.128 0.514,-0.081 0.502,-0.006C0.464,0.002 0.432,0.007 0.407,0.009C0.381,0.011 0.355,0.013 0.329,0.013C0.29,0.013 0.254,0.01 0.222,0.005C0.189,-0.001 0.161,-0.01 0.137,-0.024C0.114,-0.038 0.094,-0.055 0.078,-0.075C0.062,-0.095 0.05,-0.119 0.042,-0.147C0.033,-0.175 0.029,-0.204 0.029,-0.234C0.029,-0.275 0.038,-0.316 0.054,-0.356C0.071,-0.396 0.092,-0.427 0.118,-0.449C0.145,-0.472 0.175,-0.488 0.209,-0.497C0.243,-0.507 0.278,-0.511 0.314,-0.511C0.351,-0.511 0.386,-0.507 0.42,-0.498C0.454,-0.49 0.482,-0.475 0.506,-0.453C0.529,-0.432 0.546,-0.407 0.556,-0.38C0.566,-0.353 0.571,-0.324 0.571,-0.293C0.571,-0.274 0.569,-0.254 0.564,-0.231L0.222,-0.23C0.222,-0.225 0.222,-0.221 0.222,-0.216C0.222,-0.181 0.234,-0.156 0.259,-0.139C0.284,-0.123 0.315,-0.114 0.351,-0.114C0.373,-0.114 0.397,-0.117 0.425,-0.122C0.452,-0.127 0.486,-0.135 0.526,-0.147ZM0.226,-0.305L0.387,-0.305C0.388,-0.311 0.388,-0.315 0.388,-0.319C0.388,-0.336 0.385,-0.351 0.379,-0.363C0.373,-0.375 0.364,-0.384 0.353,-0.389C0.342,-0.395 0.329,-0.397 0.315,-0.397C0.305,-0.397 0.296,-0.396 0.287,-0.393C0.278,-0.39 0.269,-0.385 0.262,-0.379C0.255,-0.373 0.249,-0.366 0.244,-0.358C0.239,-0.351 0.235,-0.343 0.233,-0.336C0.231,-0.328 0.228,-0.318 0.226,-0.305Z" style="fill:white;fill-rule:nonzero;"/>
        </g>
        <g transform="matrix(84,0,0,84,123.288072,207.450271)">
            <path d="M0.038,-0C0.048,-0.074 0.055,-0.156 0.06,-0.245C0.065,-0.334 0.068,-0.419 0.069,-0.499C0.108,-0.498 0.142,-0.498 0.17,-0.498C0.203,-0.498 0.234,-0.498 0.265,-0.499L0.26,-0.432C0.271,-0.444 0.28,-0.454 0.288,-0.461C0.295,-0.468 0.305,-0.475 0.317,-0.481C0.328,-0.488 0.34,-0.493 0.354,-0.498C0.367,-0.502 0.381,-0.505 0.396,-0.508C0.412,-0.51 0.428,-0.511 0.445,-0.511C0.468,-0.511 0.491,-0.509 0.513,-0.504C0.536,-0.499 0.554,-0.491 0.569,-0.482C0.584,-0.473 0.597,-0.461 0.607,-0.448C0.617,-0.434 0.624,-0.419 0.627,-0.403C0.63,-0.387 0.632,-0.37 0.632,-0.354C0.632,-0.341 0.631,-0.314 0.628,-0.273L0.62,-0.097C0.618,-0.062 0.617,-0.03 0.617,-0C0.584,-0.001 0.554,-0.001 0.525,-0.001C0.486,-0.001 0.451,-0.001 0.419,-0C0.422,-0.03 0.425,-0.074 0.428,-0.132C0.431,-0.191 0.433,-0.232 0.433,-0.255C0.433,-0.292 0.426,-0.318 0.412,-0.332C0.398,-0.347 0.38,-0.354 0.358,-0.354C0.34,-0.354 0.322,-0.348 0.305,-0.335C0.288,-0.323 0.275,-0.305 0.266,-0.281C0.257,-0.258 0.251,-0.219 0.247,-0.165C0.243,-0.111 0.241,-0.056 0.239,-0C0.207,-0.001 0.175,-0.001 0.144,-0.001C0.111,-0.001 0.076,-0.001 0.038,-0Z" style="fill:white;fill-rule:nonzero;"/>
        </g>
        <g transform="matrix(84,0,0,84,180.381822,207.450271)">
            <path d="M0.593,-0C0.558,-0.001 0.529,-0.001 0.506,-0.001C0.48,-0.001 0.448,-0.001 0.411,-0L0.414,-0.062C0.401,-0.05 0.39,-0.04 0.381,-0.032C0.371,-0.024 0.359,-0.017 0.344,-0.01C0.33,-0.003 0.314,0.003 0.297,0.007C0.28,0.011 0.262,0.013 0.244,0.013C0.212,0.013 0.183,0.007 0.156,-0.004C0.129,-0.016 0.106,-0.032 0.086,-0.053C0.067,-0.074 0.053,-0.099 0.043,-0.128C0.034,-0.156 0.029,-0.186 0.029,-0.217C0.029,-0.261 0.038,-0.304 0.055,-0.346C0.072,-0.388 0.095,-0.421 0.123,-0.445C0.151,-0.469 0.182,-0.486 0.217,-0.496C0.252,-0.506 0.29,-0.511 0.331,-0.511C0.358,-0.511 0.389,-0.509 0.425,-0.504C0.428,-0.543 0.43,-0.597 0.431,-0.667C0.471,-0.666 0.503,-0.666 0.529,-0.666C0.562,-0.666 0.595,-0.666 0.628,-0.667C0.619,-0.57 0.611,-0.452 0.604,-0.312C0.596,-0.173 0.593,-0.069 0.593,-0ZM0.418,-0.377C0.401,-0.381 0.385,-0.383 0.37,-0.383C0.338,-0.383 0.311,-0.377 0.289,-0.365C0.267,-0.352 0.25,-0.333 0.238,-0.307C0.226,-0.281 0.22,-0.256 0.22,-0.231C0.22,-0.212 0.224,-0.195 0.23,-0.18C0.237,-0.165 0.247,-0.153 0.261,-0.144C0.275,-0.135 0.29,-0.131 0.307,-0.131C0.325,-0.131 0.341,-0.136 0.356,-0.146C0.371,-0.156 0.383,-0.171 0.392,-0.19C0.402,-0.21 0.408,-0.233 0.411,-0.26C0.415,-0.287 0.417,-0.326 0.418,-0.377Z" style="fill:white;fill-rule:nonzero;"/>
        </g>
        <g transform="matrix(84,0,0,84,235.793932,207.450271)">
            <path d="M0.526,-0.147C0.522,-0.128 0.514,-0.081 0.502,-0.006C0.464,0.002 0.432,0.007 0.407,0.009C0.381,0.011 0.355,0.013 0.329,0.013C0.29,0.013 0.254,0.01 0.222,0.005C0.189,-0.001 0.161,-0.01 0.137,-0.024C0.114,-0.038 0.094,-0.055 0.078,-0.075C0.062,-0.095 0.05,-0.119 0.042,-0.147C0.033,-0.175 0.029,-0.204 0.029,-0.234C0.029,-0.275 0.038,-0.316 0.054,-0.356C0.071,-0.396 0.092,-0.427 0.118,-0.449C0.145,-0.472 0.175,-0.488 0.209,-0.497C0.243,-0.507 0.278,-0.511 0.314,-0.511C0.351,-0.511 0.386,-0.507 0.42,-0.498C0.454,-0.49 0.482,-0.475 0.506,-0.453C0.529,-0.432 0.546,-0.407 0.556,-0.38C0.566,-0.353 0.571,-0.324 0.571,-0.293C0.571,-0.274 0.569,-0.254 0.564,-0.231L0.222,-0.23C0.222,-0.225 0.222,-0.221 0.222,-0.216C0.222,-0.181 0.234,-0.156 0.259,-0.139C0.284,-0.123 0.315,-0.114 0.351,-0.114C0.373,-0.114 0.397,-0.117 0.425,-0.122C0.452,-0.127 0.486,-0.135 0.526,-0.147ZM0.226,-0.305L0.387,-0.305C0.388,-0.311 0.388,-0.315 0.388,-0.319C0.388,-0.336 0.385,-0.351 0.379,-0.363C0.373,-0.375 0.364,-0.384 0.353,-0.389C0.342,-0.395 0.329,-0.397 0.315,-0.397C0.305,-0.397 0.296,-0.396 0.287,-0.393C0.278,-0.39 0.269,-0.385 0.262,-0.379C0.255,-0.373 0.249,-0.366 0.244,-0.358C0.239,-0.351 0.235,-0.343 0.233,-0.336C0.231,-0.328 0.228,-0.318 0.226,-0.305Z" style="fill:white;fill-rule:nonzero;"/>
        </g>
        <g transform="matrix(84,0,0,84,285.504869,207.450271)">
            <path d="M0.042,-0L0.058,-0.217L0.062,-0.341C0.063,-0.364 0.063,-0.387 0.063,-0.41C0.063,-0.434 0.063,-0.463 0.062,-0.499C0.101,-0.498 0.133,-0.498 0.156,-0.498C0.183,-0.498 0.214,-0.498 0.249,-0.499L0.247,-0.443C0.26,-0.458 0.27,-0.468 0.278,-0.475C0.286,-0.482 0.296,-0.489 0.306,-0.494C0.317,-0.5 0.327,-0.504 0.339,-0.507C0.35,-0.51 0.362,-0.511 0.375,-0.511C0.386,-0.511 0.399,-0.51 0.414,-0.506C0.414,-0.471 0.415,-0.442 0.416,-0.418L0.419,-0.343C0.402,-0.348 0.385,-0.351 0.369,-0.351C0.35,-0.351 0.333,-0.348 0.319,-0.343C0.304,-0.337 0.292,-0.328 0.281,-0.317C0.27,-0.305 0.261,-0.291 0.255,-0.273C0.248,-0.256 0.244,-0.229 0.241,-0.191C0.239,-0.154 0.237,-0.111 0.237,-0.063C0.237,-0.046 0.238,-0.025 0.239,-0C0.208,-0.001 0.176,-0.001 0.144,-0.001C0.112,-0.001 0.079,-0.001 0.042,-0Z" style="fill:white;fill-rule:nonzero;"/>
        </g>
    </g>
    <g transform="matrix(1,0,0,1,40,0)">
        <g transform="matrix(1,0,0,1,-34,0)">
            <path d="M47,9C47,10.104 46.104,11 45,11L7,11C5.896,11 5,10.104 5,9C5,7.896 5.896,7 7,7L45,7C46.104,7 47,7.896 47,9Z" style="fill:rgb(136,136,136);"/>
        </g>
        <g transform="matrix(1,0,0,1,-34,0)">
            <circle cx="52" cy="9" r="2" style="fill:rgb(136,136,136);"/>
        </g>
        <g transform="matrix(1,0,0,1,-34,0)">
            <circle cx="59" cy="9" r="2" style="fill:rgb(136,136,136);"/>
        </g>
        <g transform="matrix(1,0,0,1,-34,0)">
            <circle cx="66" cy="9" r="2" style="fill:rgb(136,136,136);"/>
        </g>
    </g>
    <g transform="matrix(1,0,0,1,-4.122974,-32.613019)">
        <g transform="matrix(84,0,0,84,8.35443,115.443038)">
            <path d="M0.049,-0L0.059,-0.103L0.078,-0.45L0.083,-0.59L0.083,-0.667C0.134,-0.666 0.179,-0.666 0.217,-0.666C0.245,-0.666 0.284,-0.666 0.334,-0.667L0.543,-0.287L0.572,-0.232C0.575,-0.286 0.579,-0.363 0.583,-0.462C0.587,-0.561 0.588,-0.629 0.588,-0.667C0.628,-0.666 0.66,-0.666 0.685,-0.666C0.696,-0.666 0.728,-0.666 0.78,-0.667L0.769,-0.521L0.747,-0.117L0.744,-0C0.701,-0.001 0.662,-0.001 0.625,-0.001C0.594,-0.001 0.552,-0.001 0.498,-0C0.481,-0.032 0.469,-0.055 0.46,-0.069L0.378,-0.209C0.351,-0.254 0.326,-0.298 0.304,-0.339C0.289,-0.366 0.273,-0.395 0.257,-0.426L0.247,-0.195L0.242,-0C0.202,-0.001 0.171,-0.001 0.15,-0.001C0.132,-0.001 0.098,-0.001 0.049,-0Z" style="fill:white;fill-rule:nonzero;"/>
        </g>
        <g transform="matrix(84,0,0,84,77.301696,115.443038)">
            <path d="M0.492,-0.111C0.488,-0.092 0.482,-0.057 0.474,-0.007C0.439,0 0.409,0.005 0.385,0.008C0.361,0.01 0.337,0.012 0.312,0.012C0.27,0.012 0.232,0.007 0.198,-0.001C0.164,-0.009 0.135,-0.025 0.109,-0.048C0.084,-0.07 0.065,-0.098 0.053,-0.131C0.041,-0.164 0.035,-0.198 0.035,-0.234C0.035,-0.274 0.042,-0.313 0.056,-0.35C0.07,-0.388 0.09,-0.419 0.115,-0.443C0.14,-0.467 0.169,-0.484 0.201,-0.493C0.233,-0.503 0.267,-0.508 0.302,-0.508C0.335,-0.508 0.367,-0.504 0.397,-0.496C0.427,-0.488 0.452,-0.474 0.472,-0.455C0.493,-0.436 0.508,-0.414 0.519,-0.387C0.53,-0.361 0.536,-0.331 0.536,-0.299C0.536,-0.283 0.534,-0.268 0.531,-0.251L0.173,-0.251C0.172,-0.239 0.172,-0.229 0.172,-0.222C0.172,-0.2 0.176,-0.18 0.183,-0.162C0.191,-0.144 0.201,-0.128 0.216,-0.116C0.23,-0.103 0.247,-0.094 0.267,-0.088C0.287,-0.082 0.306,-0.079 0.326,-0.079C0.348,-0.079 0.372,-0.081 0.399,-0.086C0.425,-0.091 0.456,-0.099 0.492,-0.111ZM0.177,-0.308L0.405,-0.308C0.405,-0.323 0.405,-0.335 0.404,-0.342C0.403,-0.35 0.401,-0.358 0.397,-0.368C0.394,-0.377 0.389,-0.386 0.383,-0.393C0.377,-0.4 0.371,-0.406 0.363,-0.411C0.355,-0.416 0.346,-0.42 0.336,-0.422C0.325,-0.425 0.314,-0.426 0.303,-0.426C0.289,-0.426 0.276,-0.424 0.263,-0.42C0.25,-0.416 0.238,-0.41 0.228,-0.401C0.217,-0.393 0.208,-0.384 0.201,-0.374C0.195,-0.364 0.19,-0.355 0.187,-0.345C0.183,-0.336 0.18,-0.324 0.177,-0.308Z" style="fill:white;fill-rule:nonzero;"/>
        </g>
        <g transform="matrix(84,0,0,84,124.387634,115.443038)">
            <path d="M0.316,-0.508C0.353,-0.508 0.389,-0.503 0.424,-0.491C0.458,-0.48 0.487,-0.464 0.511,-0.442C0.535,-0.42 0.553,-0.393 0.565,-0.361C0.577,-0.329 0.583,-0.296 0.583,-0.261C0.583,-0.224 0.577,-0.188 0.564,-0.153C0.551,-0.119 0.533,-0.089 0.509,-0.064C0.485,-0.038 0.455,-0.02 0.419,-0.007C0.383,0.005 0.344,0.012 0.304,0.012C0.266,0.012 0.23,0.006 0.196,-0.005C0.162,-0.016 0.133,-0.033 0.109,-0.056C0.085,-0.078 0.066,-0.105 0.054,-0.138C0.041,-0.17 0.035,-0.204 0.035,-0.239C0.035,-0.275 0.041,-0.309 0.052,-0.341C0.064,-0.374 0.081,-0.403 0.106,-0.428C0.13,-0.454 0.161,-0.473 0.199,-0.487C0.236,-0.501 0.276,-0.508 0.316,-0.508ZM0.316,-0.408C0.288,-0.408 0.262,-0.401 0.24,-0.387C0.218,-0.373 0.201,-0.353 0.19,-0.325C0.179,-0.298 0.174,-0.268 0.174,-0.236C0.174,-0.208 0.178,-0.182 0.187,-0.16C0.196,-0.138 0.211,-0.12 0.231,-0.106C0.252,-0.093 0.276,-0.086 0.304,-0.086C0.332,-0.086 0.358,-0.093 0.379,-0.107C0.401,-0.121 0.417,-0.142 0.428,-0.17C0.439,-0.197 0.444,-0.228 0.444,-0.261C0.444,-0.288 0.44,-0.312 0.432,-0.334C0.423,-0.357 0.409,-0.374 0.389,-0.388C0.369,-0.401 0.345,-0.408 0.316,-0.408Z" style="fill:white;fill-rule:nonzero;"/>
        </g>
    </g>
    <g transform="matrix(1,0,0,1,-29.707138,32.31014)">
        <g transform="matrix(84,0,0,84,33.815547,115.443038)">
            <path d="M0.051,-0C0.058,-0.066 0.062,-0.119 0.065,-0.159C0.069,-0.218 0.073,-0.3 0.076,-0.404C0.08,-0.507 0.082,-0.577 0.082,-0.613L0.082,-0.667C0.18,-0.666 0.271,-0.666 0.355,-0.666C0.44,-0.666 0.522,-0.666 0.6,-0.667C0.595,-0.592 0.592,-0.543 0.592,-0.52L0.55,-0.521L0.481,-0.522L0.385,-0.522C0.374,-0.522 0.342,-0.522 0.288,-0.521L0.284,-0.407L0.354,-0.406L0.434,-0.406C0.456,-0.406 0.491,-0.406 0.538,-0.407C0.535,-0.346 0.533,-0.298 0.533,-0.263C0.48,-0.264 0.441,-0.265 0.416,-0.265C0.373,-0.265 0.326,-0.264 0.275,-0.263L0.271,-0.087L0.27,-0.021L0.27,-0L0.165,-0.001C0.157,-0.001 0.119,-0.001 0.051,-0Z" style="fill:white;fill-rule:nonzero;"/>
        </g>
        <g transform="matrix(84,0,0,84,85.372188,115.443038)">
            <path d="M0.316,-0.508C0.353,-0.508 0.389,-0.503 0.424,-0.491C0.458,-0.48 0.487,-0.464 0.511,-0.442C0.535,-0.42 0.553,-0.393 0.565,-0.361C0.577,-0.329 0.583,-0.296 0.583,-0.261C0.583,-0.224 0.577,-0.188 0.564,-0.153C0.551,-0.119 0.533,-0.089 0.509,-0.064C0.485,-0.038 0.455,-0.02 0.419,-0.007C0.383,0.005 0.344,0.012 0.304,0.012C0.266,0.012 0.23,0.006 0.196,-0.005C0.162,-0.016 0.133,-0.033 0.109,-0.056C0.085,-0.078 0.066,-0.105 0.054,-0.138C0.041,-0.17 0.035,-0.204 0.035,-0.239C0.035,-0.275 0.041,-0.309 0.052,-0.341C0.064,-0.374 0.081,-0.403 0.106,-0.428C0.13,-0.454 0.161,-0.473 0.199,-0.487C0.236,-0.501 0.276,-0.508 0.316,-0.508ZM0.316,-0.408C0.288,-0.408 0.262,-0.401 0.24,-0.387C0.218,-0.373 0.201,-0.353 0.19,-0.325C0.179,-0.298 0.174,-0.268 0.174,-0.236C0.174,-0.208 0.178,-0.182 0.187,-0.16C0.196,-0.138 0.211,-0.12 0.231,-0.106C0.252,-0.093 0.276,-0.086 0.304,-0.086C0.332,-0.086 0.358,-0.093 0.379,-0.107C0.401,-0.121 0.417,-0.142 0.428,-0.17C0.439,-0.197 0.444,-0.228 0.444,-0.261C0.444,-0.288 0.44,-0.312 0.432,-0.334C0.423,-0.357 0.409,-0.374 0.389,-0.388C0.369,-0.401 0.345,-0.408 0.316,-0.408Z" style="fill:white;fill-rule:nonzero;"/>
        </g>
        <g transform="matrix(84,0,0,84,137.256953,115.443038)">
            <path d="M0.045,-0C0.053,-0.074 0.059,-0.157 0.064,-0.249C0.069,-0.341 0.072,-0.424 0.073,-0.497C0.103,-0.496 0.127,-0.496 0.145,-0.496C0.166,-0.496 0.188,-0.496 0.212,-0.497L0.207,-0.414C0.217,-0.428 0.226,-0.439 0.233,-0.448C0.241,-0.456 0.251,-0.465 0.262,-0.473C0.274,-0.481 0.287,-0.487 0.301,-0.492C0.314,-0.497 0.329,-0.501 0.346,-0.504C0.363,-0.507 0.38,-0.508 0.398,-0.508C0.427,-0.508 0.455,-0.505 0.482,-0.497C0.508,-0.49 0.53,-0.478 0.546,-0.462C0.562,-0.446 0.573,-0.429 0.578,-0.41C0.583,-0.391 0.586,-0.371 0.586,-0.35C0.586,-0.341 0.585,-0.327 0.584,-0.308L0.574,-0.095C0.573,-0.065 0.572,-0.034 0.572,-0C0.546,-0.001 0.524,-0.001 0.506,-0.001C0.481,-0.001 0.456,-0.001 0.431,-0C0.434,-0.028 0.437,-0.078 0.441,-0.148C0.445,-0.219 0.447,-0.265 0.447,-0.288C0.447,-0.314 0.443,-0.334 0.435,-0.35C0.426,-0.366 0.414,-0.378 0.397,-0.386C0.38,-0.394 0.361,-0.398 0.341,-0.398C0.322,-0.398 0.304,-0.394 0.287,-0.387C0.27,-0.379 0.255,-0.368 0.243,-0.354C0.23,-0.339 0.22,-0.321 0.212,-0.3C0.205,-0.277 0.199,-0.239 0.196,-0.187C0.193,-0.14 0.19,-0.078 0.188,-0C0.163,-0.001 0.14,-0.001 0.12,-0.001C0.1,-0.001 0.075,-0.001 0.045,-0Z" style="fill:white;fill-rule:nonzero;"/>
        </g>
        <g transform="matrix(84,0,0,84,191.028438,115.443038)">
            <path d="M0.354,-0.102C0.35,-0.084 0.343,-0.051 0.335,-0.002C0.308,0.004 0.286,0.008 0.271,0.009C0.255,0.011 0.24,0.012 0.227,0.012C0.202,0.012 0.181,0.009 0.162,0.005C0.143,0 0.127,-0.008 0.115,-0.019C0.102,-0.031 0.094,-0.044 0.09,-0.06C0.085,-0.075 0.083,-0.091 0.083,-0.108C0.083,-0.112 0.083,-0.118 0.083,-0.125C0.084,-0.132 0.085,-0.155 0.087,-0.194L0.099,-0.397L0.028,-0.397C0.03,-0.417 0.031,-0.448 0.033,-0.492L0.106,-0.492C0.108,-0.511 0.11,-0.543 0.112,-0.588L0.17,-0.599C0.182,-0.601 0.205,-0.607 0.24,-0.615C0.237,-0.571 0.236,-0.53 0.236,-0.492L0.36,-0.492C0.358,-0.448 0.356,-0.416 0.356,-0.397L0.232,-0.397C0.225,-0.265 0.222,-0.188 0.222,-0.167C0.222,-0.147 0.224,-0.132 0.228,-0.121C0.233,-0.11 0.24,-0.102 0.25,-0.097C0.259,-0.092 0.27,-0.089 0.281,-0.089C0.289,-0.089 0.297,-0.09 0.306,-0.091C0.315,-0.093 0.331,-0.096 0.354,-0.102Z" style="fill:white;fill-rule:nonzero;"/>
        </g>
        <g transform="matrix(84,0,0,84,222.241328,115.443038)">
            <path d="M0.036,-0.009L0.025,-0.117C0.057,-0.104 0.084,-0.095 0.106,-0.09C0.128,-0.085 0.148,-0.082 0.167,-0.082C0.186,-0.082 0.201,-0.084 0.214,-0.089C0.227,-0.093 0.236,-0.1 0.242,-0.108C0.248,-0.117 0.251,-0.126 0.251,-0.135C0.251,-0.139 0.251,-0.143 0.25,-0.147C0.249,-0.151 0.248,-0.154 0.246,-0.158C0.244,-0.162 0.241,-0.166 0.239,-0.169C0.236,-0.173 0.232,-0.177 0.227,-0.181C0.222,-0.185 0.215,-0.191 0.206,-0.198L0.18,-0.219C0.154,-0.239 0.135,-0.254 0.122,-0.266C0.108,-0.277 0.097,-0.289 0.088,-0.301C0.079,-0.312 0.072,-0.325 0.067,-0.338C0.062,-0.351 0.06,-0.365 0.06,-0.378C0.06,-0.402 0.067,-0.425 0.082,-0.446C0.096,-0.468 0.117,-0.483 0.145,-0.493C0.173,-0.503 0.205,-0.508 0.243,-0.508C0.285,-0.508 0.334,-0.503 0.39,-0.493L0.396,-0.391C0.359,-0.406 0.322,-0.414 0.288,-0.414C0.269,-0.414 0.252,-0.412 0.238,-0.408C0.224,-0.405 0.214,-0.399 0.208,-0.391C0.201,-0.384 0.198,-0.375 0.198,-0.366C0.198,-0.36 0.199,-0.355 0.201,-0.349C0.203,-0.344 0.207,-0.338 0.211,-0.333C0.216,-0.327 0.222,-0.321 0.228,-0.316C0.235,-0.311 0.248,-0.3 0.268,-0.285C0.288,-0.27 0.306,-0.256 0.321,-0.244C0.336,-0.231 0.349,-0.219 0.358,-0.206C0.368,-0.194 0.376,-0.18 0.381,-0.166C0.386,-0.152 0.389,-0.137 0.389,-0.123C0.389,-0.098 0.381,-0.076 0.366,-0.055C0.351,-0.034 0.329,-0.018 0.298,-0.006C0.268,0.006 0.234,0.012 0.197,0.012C0.177,0.012 0.153,0.01 0.125,0.007C0.097,0.004 0.068,-0.001 0.036,-0.009Z" style="fill:white;fill-rule:nonzero;"/>
        </g>
    </g>
</svg>
